<svg height="480pt" viewBox="0 0 480 480.03743" width="480pt" xmlns="http://www.w3.org/2000/svg"><path d="m472.019531 224.039062h-128v-112h8c4.417969 0 8-3.582031 8-8v-32c0-4.417968-3.582031-8-8-8h-104v-18.242187l42.527344-14.175781c3.28125-1.078125 5.5-4.144532 5.5-7.601563 0-3.453125-2.21875-6.519531-5.5-7.597656l-48-16c-2.433594-.828125-5.117187-.421875-7.199219 1.085937-2.101562 1.511719-3.339844 3.945313-3.328125 6.53125v56h-104c-4.417969 0-8 3.582032-8 8v32c0 4.417969 3.582031 8 8 8h8v112h-128c-4.417969 0-7.9999998 3.582032-7.9999998 8v240c0 4.417969 3.5820308 8 7.9999998 8h464c4.417969 0 8-3.582031 8-8v-240c0-4.417968-3.582031-8-8-8zm-224-204.898437 14.703125 4.898437-14.703125 4.894532zm-112 60.898437h208v16h-208zm-120 160h120v224h-120zm136-128h176v352h-32v-104c0-4.417968-3.582031-8-8-8h-96c-4.417969 0-8 3.582032-8 8v104h-32zm48 256h32v96h-32zm48 96v-96h32v96zm216 0h-120v-224h120zm0 0"/><path d="m360.019531 320.039062h32c4.417969 0 8-3.582031 8-8v-32c0-4.417968-3.582031-8-8-8h-32c-4.417969 0-8 3.582032-8 8v32c0 4.417969 3.582031 8 8 8zm8-32h16v16h-16zm0 0"/><path d="m416.019531 320.039062h32c4.417969 0 8-3.582031 8-8v-32c0-4.417968-3.582031-8-8-8h-32c-4.417969 0-8 3.582032-8 8v32c0 4.417969 3.582031 8 8 8zm8-32h16v16h-16zm0 0"/><path d="m168.019531 192.039062h32c4.417969 0 8-3.582031 8-8v-32c0-4.417968-3.582031-8-8-8h-32c-4.417969 0-8 3.582032-8 8v32c0 4.417969 3.582031 8 8 8zm8-32h16v16h-16zm0 0"/><path d="m224.019531 192.039062h32c4.417969 0 8-3.582031 8-8v-32c0-4.417968-3.582031-8-8-8h-32c-4.417969 0-8 3.582032-8 8v32c0 4.417969 3.582031 8 8 8zm8-32h16v16h-16zm0 0"/><path d="m280.019531 192.039062h32c4.417969 0 8-3.582031 8-8v-32c0-4.417968-3.582031-8-8-8h-32c-4.417969 0-8 3.582032-8 8v32c0 4.417969 3.582031 8 8 8zm8-32h16v16h-16zm0 0"/><path d="m168.019531 256.039062h32c4.417969 0 8-3.582031 8-8v-32c0-4.417968-3.582031-8-8-8h-32c-4.417969 0-8 3.582032-8 8v32c0 4.417969 3.582031 8 8 8zm8-32h16v16h-16zm0 0"/><path d="m224.019531 256.039062h32c4.417969 0 8-3.582031 8-8v-32c0-4.417968-3.582031-8-8-8h-32c-4.417969 0-8 3.582032-8 8v32c0 4.417969 3.582031 8 8 8zm8-32h16v16h-16zm0 0"/><path d="m280.019531 256.039062h32c4.417969 0 8-3.582031 8-8v-32c0-4.417968-3.582031-8-8-8h-32c-4.417969 0-8 3.582032-8 8v32c0 4.417969 3.582031 8 8 8zm8-32h16v16h-16zm0 0"/><path d="m200.019531 320.039062c4.417969 0 8-3.582031 8-8v-32c0-4.417968-3.582031-8-8-8h-32c-4.417969 0-8 3.582032-8 8v32c0 4.417969 3.582031 8 8 8zm-24-32h16v16h-16zm0 0"/><path d="m224.019531 320.039062h32c4.417969 0 8-3.582031 8-8v-32c0-4.417968-3.582031-8-8-8h-32c-4.417969 0-8 3.582032-8 8v32c0 4.417969 3.582031 8 8 8zm8-32h16v16h-16zm0 0"/><path d="m280.019531 320.039062h32c4.417969 0 8-3.582031 8-8v-32c0-4.417968-3.582031-8-8-8h-32c-4.417969 0-8 3.582032-8 8v32c0 4.417969 3.582031 8 8 8zm8-32h16v16h-16zm0 0"/><path d="m360.019531 376.039062h32c4.417969 0 8-3.582031 8-8v-32c0-4.417968-3.582031-8-8-8h-32c-4.417969 0-8 3.582032-8 8v32c0 4.417969 3.582031 8 8 8zm8-32h16v16h-16zm0 0"/><path d="m416.019531 376.039062h32c4.417969 0 8-3.582031 8-8v-32c0-4.417968-3.582031-8-8-8h-32c-4.417969 0-8 3.582032-8 8v32c0 4.417969 3.582031 8 8 8zm8-32h16v16h-16zm0 0"/><path d="m120.019531 272.039062h-32c-4.417969 0-8 3.582032-8 8v32c0 4.417969 3.582031 8 8 8h32c4.417969 0 8-3.582031 8-8v-32c0-4.417968-3.582031-8-8-8zm-8 32h-16v-16h16zm0 0"/><path d="m64.019531 272.039062h-32c-4.417969 0-8 3.582032-8 8v32c0 4.417969 3.582031 8 8 8h32c4.417969 0 8-3.582031 8-8v-32c0-4.417968-3.582031-8-8-8zm-8 32h-16v-16h16zm0 0"/><path d="m120.019531 328.039062h-32c-4.417969 0-8 3.582032-8 8v32c0 4.417969 3.582031 8 8 8h32c4.417969 0 8-3.582031 8-8v-32c0-4.417968-3.582031-8-8-8zm-8 32h-16v-16h16zm0 0"/><path d="m64.019531 328.039062h-32c-4.417969 0-8 3.582032-8 8v32c0 4.417969 3.582031 8 8 8h32c4.417969 0 8-3.582031 8-8v-32c0-4.417968-3.582031-8-8-8zm-8 32h-16v-16h16zm0 0"/></svg>