<?xml version="1.0" encoding="iso-8859-1"?>
<!-- Generator: Adobe Illustrator 19.0.0, SVG Export Plug-In . SVG Version: 6.00 Build 0)  -->
<svg version="1.1" id="Capa_1" xmlns="http://www.w3.org/2000/svg" xmlns:xlink="http://www.w3.org/1999/xlink" x="0px" y="0px"
	 viewBox="0 0 489.905 489.905" style="enable-background:new 0 0 489.905 489.905;" xml:space="preserve">
<g>
	<g>
		<path d="M126.384,12.637c-22.056,0-40,17.944-40,40c0,22.056,17.944,40,40,40c22.056,0,40-17.944,40-40
			C166.384,30.581,148.44,12.637,126.384,12.637z M126.384,76.637c-13.232,0-24-10.768-24-24s10.768-24,24-24s24,10.768,24,24
			S139.616,76.637,126.384,76.637z"/>
	</g>
</g>
<g>
	<g>
		<path d="M318.368,324.085c-0.728-10.44-4.816-36.568-27.088-53.776c-21.312-16.456-60.6-9.84-62.264-9.552
			c-2.144,0.376-4.04,1.608-5.256,3.408s-1.648,4.024-1.192,6.152c0.32,1.512,8.192,37.528,26.792,52.544
			c18.184,14.68,38.776,17.776,52.904,17.776c2.216,0,4.248-0.816,5.776-2.344l8-8C317.68,328.653,318.528,326.389,318.368,324.085z
			 M299.128,324.573c-11.312-0.44-26.44-3.44-39.72-14.16c-9-7.264-15.52-23.64-18.944-34.904c12.28-0.896,30.92-0.344,41.032,7.464
			c15.056,11.632,19.352,29.008,20.56,38.68L299.128,324.573z"/>
	</g>
</g>
<g>
	<g>
		<path d="M480.096,260.821c-1.728-0.376-42.76-9.08-63.168,9.968c-16.824,15.696-18.568,37.312-18.544,45.872
			c0.008,2.112,0.848,4.136,2.344,5.632l8,8c1.224,1.224,2.824,2.024,4.536,2.264c2.768,0.392,6.296,0.72,10.328,0.72
			c9.912,0,22.88-1.992,35.144-9.928c20.856-13.504,26.936-49.448,27.56-53.496C486.944,265.677,484.224,261.717,480.096,260.821z
			 M450.032,309.917c-11.504,7.448-24.136,7.84-31.96,7.096l-3.608-3.608c0.456-7.656,2.856-21.096,13.376-30.92
			c9.416-8.784,28.696-8.72,41.008-7.288C466.008,286.573,459.92,303.517,450.032,309.917z"/>
	</g>
</g>
<g>
	<g>
		<path d="M293.6,201.181c-1.96-4.088-9.776-18.048-28.024-25.968c-11.576-5.032-32.616-1.312-36.712-0.512
			c-4.208,0.816-7.024,4.816-6.384,9.056c0.424,2.816,4.552,27.456,18.984,37.136c3.664,3.008,12.064,7.12,23.496,7.12
			c7.256,0,15.744-1.656,25.016-6.312c2.704-1.36,4.408-4.128,4.408-7.152v-9.912C294.384,203.445,294.112,202.261,293.6,201.181z
			 M278.384,209.349c-15.024,5.8-24.696,0.496-26.6-0.712c-0.352-0.328-0.744-0.624-1.168-0.888
			c-4.776-2.976-8.408-11.184-10.544-18.552c7.28-0.76,15.456-0.904,19.128,0.688c11.384,4.936,17,12.832,19.184,16.704V209.349z"/>
	</g>
</g>
<g>
	<g>
		<path d="M444.032,174.981l-16-16c-2.96-2.952-7.672-3.136-10.84-0.432c-6.088,5.184-11.776,10.872-16.904,16.904
			c-3.6,4.232-8.176,9.168-12.936,14.312c-7.672,8.288-14.056,15.272-18.92,21.272c-3.168-6.864-7.088-13.32-11.736-19.304
			c-5.024-6.464-10.872-12.32-17.4-17.4c-2.112-1.64-4.896-2.12-7.448-1.28l-24,8c-2.4,0.8-4.288,2.696-5.072,5.104
			c-0.784,2.408-0.384,5.048,1.08,7.112c10.048,14.16,17.752,29.568,22.896,45.792c4.44,14.008,6.8,28.184,7.632,45.96
			c2.56,54.24-10.224,122.968-15.84,150l15.664,3.256c5.736-27.632,18.8-97.944,16.16-154c-0.904-19.224-3.488-34.656-8.368-50.04
			c-4.584-14.456-11.008-28.304-19.16-41.304l9.872-3.296c4.176,3.608,7.984,7.608,11.336,11.928
			c6.712,8.64,11.632,18.472,14.608,29.224c0.92,3.312,3.848,5.664,7.28,5.856c3.4,0.216,6.6-1.84,7.864-5.032
			c2.56-6.44,15.16-20.04,25.28-30.968c4.928-5.32,9.656-10.432,13.384-14.808c3-3.528,6.224-6.936,9.616-10.16l5.96,5.96
			c-0.72,1.056-1.472,2.144-2.232,3.248c-16.272,23.688-40.864,59.488-51.248,106.024c-10.712,48.056-10.712,99.048,0,147.472
			l15.624-3.456c-10.216-46.152-10.216-94.744,0-140.528c9.712-43.536,33.248-77.8,48.824-100.464
			c2.168-3.16,4.192-6.104,6.024-8.848C447.152,181.917,446.736,177.685,444.032,174.981z"/>
	</g>
</g>
<g>
	<g>
		<path d="M473.128,422.597c-39.544,34.472-77.856,49.992-113.88,46.08c-17.416-1.88-42.816-14.704-108.696-54.88
			c-21.552-13.144-38.392-23.552-51.744-31.816c-51.032-31.568-53.024-32.8-72.192-33.344C84.992,347.389,42.6,375.437,0,431.805
			l12.768,9.648c39.288-52,77.48-77.76,113.384-76.816c14.872,0.424,14.872,0.424,64.232,30.96
			c13.376,8.28,30.24,18.704,51.832,31.872c69.048,42.104,94.912,54.92,115.304,57.12c4.216,0.456,8.448,0.68,12.704,0.68
			c36.744,0,74.832-16.984,113.416-50.608L473.128,422.597z"/>
	</g>
</g>
<g>
	<g>
		<path d="M485.968,66.101c-0.968-2.896-3.496-4.992-6.52-5.4c-3.336-0.448-33.016-3.984-46.832,10.384
			c-16.64,17.304-19.216,43.408-17.904,47.824c0.384,1.28,1.072,2.44,2.016,3.384l16,16c1.528,1.528,3.576,2.344,5.656,2.344
			c1.088,0,2.176-0.216,3.208-0.672c1-0.44,2.6-0.936,4.568-1.576c10.968-3.552,31.368-10.168,39.376-26.176
			C494.912,93.461,486.336,67.213,485.968,66.101z M471.232,105.061c-5,10.008-21.264,15.28-30,18.112
			c-0.256,0.08-0.504,0.168-0.752,0.24l-9.992-9.984c0.672-6.216,3.728-20.928,13.664-31.248c5.208-5.424,18.24-6.608,28-6.08
			C473.936,83.885,475.48,96.581,471.232,105.061z"/>
	</g>
</g>
<g>
	<g>
		<path d="M362.488,85.773c-2.536-1.512-5.672-1.512-8.208,0c-2.856,1.696-27.896,17.272-27.896,38.864c0,22.08,19.36,40,32,40
			s32-17.92,32-40C390.384,103.045,365.344,87.469,362.488,85.773z M358.44,148.637c-3.88-0.336-16.056-10.784-16.056-24
			c0-8.504,9.528-17.48,16.008-22.336c6.488,4.832,15.992,13.768,15.992,22.336C374.384,137.853,362.208,148.301,358.44,148.637z"/>
	</g>
</g>
<g>
	<g>
		<path d="M206.384,4.637c-13.232,0-24,10.768-24,24v48c0,17.648-14.352,32-32,32h-48c-17.648,0-32-14.352-32-32v-48
			c0-13.232-10.768-24-24-24s-24,10.768-24,24v64c0,32.584,24.472,59.552,56,63.504v147.352c0,14.848,11.04,27.584,25.144,29
			c0.936,0.096,1.864,0.144,2.8,0.144c6.936,0,13.68-2.568,18.84-7.232c0.416-0.384,0.824-0.768,1.216-1.168
			c0.392,0.4,0.8,0.792,1.216,1.168c5.848,5.296,13.744,7.864,21.648,7.096c14.096-1.416,25.136-14.16,25.136-29.008V156.141
			c31.528-3.952,56-30.92,56-63.504v-64C230.384,15.405,219.616,4.637,206.384,4.637z M214.384,92.637c0,26.472-21.528,48-48,48
			c-4.416,0-8,3.584-8,8v154.856c0,6.728-4.712,12.48-10.728,13.08c-3.496,0.336-6.776-0.736-9.32-3.032
			c-2.552-2.312-3.952-5.472-3.952-8.904v-92h-16v92c0,3.432-1.4,6.592-3.952,8.904c-2.544,2.304-5.88,3.376-9.312,3.032
			c-6.024-0.6-10.736-6.344-10.736-13.08V148.637c0-4.416-3.584-8-8-8c-26.472,0-48-21.528-48-48v-64c0-4.408,3.592-8,8-8
			s8,3.592,8,8v48c0,26.472,21.528,48,48,48h48c26.472,0,48-21.528,48-48v-48c0-4.408,3.592-8,8-8s8,3.592,8,8V92.637z"/>
	</g>
</g>
<g>
</g>
<g>
</g>
<g>
</g>
<g>
</g>
<g>
</g>
<g>
</g>
<g>
</g>
<g>
</g>
<g>
</g>
<g>
</g>
<g>
</g>
<g>
</g>
<g>
</g>
<g>
</g>
<g>
</g>
</svg>
